<svg viewBox="0 0 725 120" fill="none" xmlns="http://www.w3.org/2000/svg">
  <path d="M21 14.4c0 4.4 3 10.6 5.1 10.6 2.9 0 3.2-2.1 1.2-7.6-1.4-3.6-2.4-5-4.1-5.2-1.8-.3-2.2.1-2.2 2.2ZM9.7 23.6c-1.7 1.7-.4 3.6 3.7 5.6 4.6 2.2 7.6 1.9 7.6-.6 0-2.9-9.3-7-11.3-5ZM492.5 27.5c-2.2.8-4.1 1.5-4.2 1.5-.1 0-1.2 1.4-2.4 3.2-1.6 2.1-2.4 5.2-2.8 9.7-.6 6.6-.6 6.6-3.8 6.9-3.1.3-3.3.6-3.3 4.3 0 3.8.1 3.9 3.5 3.9h3.6l-.3 15.2-.3 15.2-3.2.8c-2.9.8-3.3 1.3-3.3 4.3V96h25.1l-.3-3.8c-.3-3.2-.7-3.7-3-4l-2.8-.3V57h10v-7.9l-4.7-.3-4.8-.3-.3-4.2c-.4-5.3 2.2-8.3 7.2-8.3 3.2 0 3.4-.2 4-4.1.4-2.3.5-4.3.3-4.6-1.3-1.2-10.7-1.1-14.2.2ZM326.2 30.7c.3 3.2.7 3.8 3.6 4.5l3.2.9v51.6l-3 .6c-2.7.6-3 1.1-3 4.2V96h25v-3.5c0-3.1-.3-3.6-3-4.2l-3-.6V27h-20.1l.3 3.7ZM29.1 32.4c-.8.9-1.1 8.8-.9 26.7l.3 25.4 6 .5 6 .5.3 4.7c.2 3-.1 4.8-.8 4.8-.6 0-2.4 1.4-4 3.2l-2.9 3.1-4-3.6c-4.3-3.8-6.8-4.6-8.9-2.5-1.9 1.9-1.4 3.8 1.6 5.1 1.5.6 3.9 2.4 5.4 3.9 3.5 3.8 7.6 3.7 11.3-.2 3.6-3.8 6.4-3.8 10 0 3.7 3.9 8.2 4 11.6.4 4.4-4.7 5.5-4.8 9.7-.9 5.1 4.5 8.2 4.6 12.7 0 3.9-3.9 5.4-3.8 9.7.7 3.4 3.6 7.6 3.7 10.9.2 4.4-4.7 5.5-4.8 9.7-.9 5 4.5 8.1 4.5 12.9.2 2.1-1.9 4.6-3.7 5.6-4 2.9-1.1 1.8-5.1-1.5-5.5-1.9-.2-3.8.7-6.6 3.2l-3.9 3.5-2.8-2.9c-1.6-1.6-3.7-3.2-4.7-3.6-1.4-.4-1.8-1.6-1.8-4.9v-4.4l6.3-.3 6.2-.3.3-25.9c.2-20.1-.1-26.1-1-26.8-.7-.4-21.6-.8-46.4-.8-37.1 0-45.4.2-46.3 1.4Zm88.7 9.8-.3 4.3-41.7.3L34 47v-9h84.1l-.3 4.2Zm-.3 15.8v4.5l-41.7.3L34 63V53l41.8.2 41.7.3V58Zm0 16v4.5l-41.7.3L34 79V69l41.8.2 41.7.3V74ZM104 90c0 4.3-.4 5.5-3.1 8.1l-3.1 3-3.9-3.6c-5.2-4.7-8.6-4.7-14 .2l-4 3.7-2.2-2.6c-4.9-5.8-10.1-6.3-15.4-1.4l-3.8 3.4-4.2-3.8c-3.5-3.1-4.3-4.4-4.3-7.2 0-1.9.3-3.8.7-4.1.3-.4 13.4-.7 29-.7H104v5Z" fill="#fff"/>
  <path d="M37.7 40.6c-1.4 1.5-.6 3.4 1.4 3.4 1.4 0 1.9-.5 1.7-1.7-.3-1.8-2-2.7-3.1-1.7ZM44.7 40.6c-1.4 1.5-.6 3.4 1.4 3.4 1.4 0 1.9-.5 1.7-1.7-.3-1.8-2-2.7-3.1-1.7ZM51.7 40.6c-1.4 1.5-.6 3.4 1.4 3.4 1.4 0 1.9-.5 1.7-1.7-.3-1.8-2-2.7-3.1-1.7ZM93.5 41c-1.6 2.7 1.3 3.5 10.7 3 7.4-.4 9.3-.8 9.3-2s-1.9-1.6-9.7-1.8c-6.1-.2-9.9.1-10.3.8ZM37.7 56.6c-1.4 1.5-.6 3.4 1.4 3.4 1.4 0 1.9-.5 1.7-1.7-.3-1.8-2-2.7-3.1-1.7ZM44.7 56.6c-1.4 1.5-.6 3.4 1.4 3.4 1.4 0 1.9-.5 1.7-1.7-.3-1.8-2-2.7-3.1-1.7ZM51.7 56.6c-1.4 1.5-.6 3.4 1.4 3.4 1.4 0 1.9-.5 1.7-1.7-.3-1.8-2-2.7-3.1-1.7ZM93.5 57.1c-1.4 2.2 1.4 3 10.6 2.7 7.6-.2 9.4-.6 9.4-1.8 0-1.2-1.9-1.6-9.7-1.8-6.3-.2-9.9.1-10.3.9ZM37.7 72.6c-1.4 1.5-.6 3.4 1.4 3.4 1.4 0 1.9-.5 1.7-1.7-.3-1.8-2-2.7-3.1-1.7ZM44.7 72.6c-1.4 1.5-.6 3.4 1.4 3.4 1.4 0 1.9-.5 1.7-1.7-.3-1.8-2-2.7-3.1-1.7ZM51.7 72.6c-1.4 1.5-.6 3.4 1.4 3.4 1.4 0 1.9-.5 1.7-1.7-.3-1.8-2-2.7-3.1-1.7ZM93.5 73.1c-.4.6-.1 1.7.7 2.5 2.1 2.1 19.3.6 19.3-1.6 0-1.2-1.9-1.6-9.7-1.8-6.4-.2-9.9.1-10.3.9ZM153.2 35.7c.3 3.3.7 3.9 3.3 4.3l3 .5.3 23.8c.2 22.9.2 23.7-1.7 23.7-3.8 0-5.1 1.1-5.1 4.6V96h48V78.9l-4.7.3c-4.8.3-4.8.3-5.1 4.1l-.3 3.8-9.2-.3-9.2-.3v-46l3-.5c2.6-.4 3-1 3.3-4.3l.3-3.7h-26.2l.3 3.7ZM271.2 35.7c.3 3.3.7 3.9 3.3 4.3l3 .5.3 23.8c.2 22.9.2 23.7-1.7 23.7-3.8 0-5.1 1.1-5.1 4.6V96h26.1l-.3-3.7c-.3-3.3-.7-3.8-3-4.1-2.8-.3-2.8-.4-2.8-7.6v-7.3l9.4-.5c15.9-.8 23.4-6.5 24.4-18.2.8-9.8-2.8-16.3-11.2-20.2-4.8-2.2-6.2-2.4-23.9-2.4h-18.8l.3 3.7Zm34.8 6.6c7.4 2.5 9 13 2.9 18.1-2.7 2.3-4 2.6-10.5 2.6H291V41l5.8.1c3.1 0 7.3.5 9.2 1.2ZM13.2 37c-4.7 2.1-5.5 5.2-1.5 5.8 3.3.5 9.8-3 9.8-5.3 0-2.7-3-2.9-8.3-.5ZM404.8 42.7l-.3 5.8-3.7.3c-3.7.3-3.8.4-3.8 4.2 0 3.8.1 3.9 3.8 4.2l3.7.3.5 16.6c.5 17.8.8 18.7 6.1 21.5 2.9 1.5 12.6 1.9 14.5.6.6-.4.9-2.6.6-5-.4-4-.6-4.2-3.6-4.2-5.2 0-5.6-1.1-5.6-16.2V57h4c4 0 4 0 4-3.9s-.1-4-3.7-4.3l-3.8-.3-.3-5.8-.3-5.7h-11.8l-.3 5.7ZM213 50.3l-5.5 2.2v11h4.5c3.7 0 4.5-.4 4.8-2 .7-3.5 2.3-4.5 7.2-4.5 5.9 0 8 2.1 8 7.8V69h-5c-8.6 0-15.1 1.9-18.7 5.5-2.8 2.8-3.3 4-3.3 8.2 0 6 1.6 9.1 5.9 12 4.8 3.3 12 3.1 17.8-.3 4.4-2.5 4.4-2.5 5-.5.5 1.9 1.3 2.1 7.9 2.1h7.4v-3.4c0-2.5-.5-3.5-1.9-3.9-1.8-.4-2-1.7-2.3-15.5-.3-17-1-18.7-8.4-22.9-5.4-3.1-15.8-3.1-23.4 0Zm19 30c0 3.7-.4 4.5-2.9 6-8 4.7-15.9-1.7-9.9-8 1.7-1.8 3.2-2.3 7.5-2.3h5.3v4.3ZM364.6 49.5c-5.9 2.3-6.6 3.2-6.6 9.1V64h4.5c4.1 0 4.5-.2 4.5-2.5 0-3 2.6-4.5 7.9-4.5 4.8 0 8.1 3.5 8.1 8.5v3.2l-8.3.5c-9.8.6-15.1 2.8-17.8 7.2-4.1 6.7-1.2 16.3 5.8 19.3 5 2 13 1.3 17-1.5 3.8-2.7 4.3-2.7 4.3-.2 0 1.8.7 2 7.5 2h7.5v-3.4c0-2.5-.5-3.5-2-3.9-1.9-.5-2-1.4-2-15 0-13.3-.2-14.7-2.2-17.7-4.2-6.1-7.1-7.5-16.1-7.7-5.3-.2-9.6.3-12.1 1.2ZM383 80c0 3.5-.5 4.3-3.2 6-4.2 2.5-8.3 2.5-10.8 0-2.6-2.6-2.5-4.6.5-7.5 2-2.1 3.4-2.5 8-2.5h5.5v4ZM443 49.1c-3.5 1.4-7.8 5.7-10.3 10.4-3.1 5.8-3.1 20.2 0 26 5.5 10.4 16.5 14 30 10 6.8-2 7.8-3.4 5.9-8-1.5-3.5-1.6-3.6-4.3-2.2-7.8 4-16.8 2.6-19.7-3.2-3.2-6-3-6.1 12.4-6.1h14v-6.8c-.1-10.1-4.1-17.4-11.3-20.1-3.5-1.4-13.3-1.3-16.7 0Zm13.5 10.4c1.6 1.5 2.5 3.6 2.5 5.5v3h-8c-8.8 0-9.4-.5-6.5-6 2.8-5.5 8-6.6 12-2.5ZM518.9 50c-15.9 8.4-15.6 37.8.5 45.1 5.5 2.5 14.8 2.5 20.3 0 12.8-5.9 16.3-29.7 6-41-5.6-6-19.2-8.1-26.8-4.1Zm14.5 8.1c4.1 1.9 5.9 7 5.4 16-.3 7-.6 8.2-3 10.6-2 1.9-3.8 2.7-6.3 2.7s-4.3-.8-6.3-2.7c-2.4-2.4-2.7-3.6-3-10.6-.3-5.8 0-8.8 1.3-11.4 2.4-5.1 6.9-6.8 11.9-4.6ZM578.2 51.5l-3.1 3.4-.3-2.7c-.3-2.7-.3-2.7-9.5-3l-9.3-.3v3.5c0 3.2.3 3.6 3.5 4.2l3.6.6-.3 15.1-.3 15.1-2.5.6c-2 .5-2.6 1.3-2.8 4.3l-.3 3.7h24.2l-.3-3.7c-.2-3-.8-3.8-2.8-4.3-2.5-.6-2.5-.7-2.8-12.6-.3-14 .5-15.7 8.1-15.8 4.7-.1 5.4-1.2 5.6-7.9.1-3.7.1-3.7-3.8-3.7-3.2 0-4.4.6-6.9 3.5ZM616.4 49.9c-1.8 1.1-3.5 2.4-3.9 3-.9 1.6-2.5.3-2.5-2 0-1.7-.8-1.9-9-1.9h-9v3.4c0 2.9.4 3.4 3.3 4.2l3.2 1v29.8l-3.2.8c-2.9.8-3.3 1.3-3.3 4.3V96h25v-3.5c0-3.1-.3-3.6-3-4.2l-3-.6V74.5c0-11.5.2-13.4 1.8-14.8 3.1-2.9 7.4-3.1 10.5-.7l2.7 2.1V87.8l-2.5.6c-2.1.5-2.5 1.2-2.5 4.1V96h23.1l-.3-3.8c-.2-3-.7-3.8-2.5-4-2.3-.3-2.3-.6-2.3-13.6 0-14.7.5-15.9 6.7-17.2 2.6-.5 3.7-.1 5.7 1.9 2.5 2.5 2.6 3 2.6 15.6 0 12.7 0 13-2.2 13.3-1.9.2-2.4 1-2.6 4l-.3 3.8H673v-3.5c0-3.1-.4-3.6-2.9-4.1l-2.8-.6-.5-14.2c-.5-11.9-.9-14.9-2.7-18.4-2.5-5-6.4-7.2-12.6-7.2-5.1 0-7.7 1-11.7 4.7l-2.6 2.5-1.1-2.1c-2.7-5.1-13.7-6.8-19.7-3.2ZM683.5 50.3c-2.3 1.3-5.2 4.3-7 7.1-2.5 4.2-3.1 6.1-3.4 12.9-.2 4.4.2 9.8.8 11.9 1.6 5.3 7.3 11.3 12.7 13.4 5.8 2.2 16.3 1.5 22.2-1.5L713 92l-1.5-3.6c-.8-2-1.5-3.7-1.5-3.8 0-.2-2.7.6-5.9 1.7-7.5 2.5-12 1.8-15.5-2.4-1.4-1.7-2.6-4.1-2.6-5.5V76h28v-5.9c0-14.5-7-22.1-20.2-22.1-4.7 0-7.3.6-10.3 2.3Zm13.3 7.3c2.5.7 5.2 5.1 5.2 8.4 0 1.8-.6 2-8 2-7.9 0-8 0-8-2.6 0-2.7 4.9-8.4 7.2-8.4.7 0 2.3.3 3.6.6Z" fill="#fff"/>
</svg>
